<?xml version="1.0" standalone="no"?>
<!DOCTYPE svg PUBLIC "-//W3C//DTD SVG 20010904//EN"
 "http://www.w3.org/TR/2001/REC-SVG-20010904/DTD/svg10.dtd">
<svg version="1.0" xmlns="http://www.w3.org/2000/svg"
 width="260.000000pt" height="260.000000pt" viewBox="0 0 260.000000 260.000000"
 preserveAspectRatio="xMidYMid meet">
<metadata>
Created by potrace 1.11, written by Peter Selinger 2001-2013
</metadata>
<g transform="translate(0.000000,260.000000) scale(0.100000,-0.100000)"
fill="#000000" stroke="none">
<path d="M1248 2065 c-2 -1 -46 -5 -98 -9 -52 -3 -106 -8 -120 -11 -14 -3 -52
-10 -85 -15 -218 -39 -476 -164 -614 -298 -100 -99 -148 -173 -182 -287 -25
-81 -20 -226 10 -310 62 -170 236 -339 454 -440 75 -34 217 -87 217 -80 0 2
17 -2 38 -9 31 -11 106 -26 212 -41 128 -19 288 -26 296 -13 3 4 10 8 15 8 6
0 7 -5 3 -12 -4 -6 -3 -8 3 -5 11 7 55 15 115 22 133 13 291 53 415 104 284
117 474 306 534 531 15 56 20 170 7 170 -5 0 -7 4 -4 9 10 15 -37 143 -74 206
-74 124 -232 256 -404 335 -127 59 -223 88 -411 124 -61 12 -318 28 -327 21z
m307 -110 c69 -11 218 -53 265 -74 110 -49 166 -115 149 -174 -17 -61 -93
-118 -209 -156 -84 -27 -190 -51 -191 -43 -14 142 -89 331 -157 395 -34 33
-96 57 -129 51 -60 -11 -122 -72 -170 -169 -30 -59 -70 -198 -76 -260 -2 -24
-16 -23 -132 7 -346 90 -366 273 -42 378 136 44 247 57 457 54 107 -1 213 -5
235 -9z m-174 -226 c35 -38 77 -132 94 -211 6 -32 18 -30 -185 -32 -163 -2
-171 -1 -160 30 5 13 7 24 5 24 -9 0 38 115 63 156 31 50 66 73 111 74 27 0
42 -8 72 -41z m-946 -67 c-6 -31 31 -99 79 -145 50 -49 150 -105 246 -137 75
-25 70 -24 174 -47 l80 -18 2 -58 c8 -243 66 -455 154 -568 19 -23 26 -39 18
-39 -30 1 -173 24 -206 34 -9 3 -28 7 -42 10 -41 7 -120 36 -198 72 -412 189
-556 556 -344 876 27 41 43 49 37 20z m1751 1 c102 -131 140 -317 95 -463 -74
-238 -317 -431 -646 -514 -61 -15 -89 -20 -185 -31 -48 -5 -53 -4 -38 8 31 24
86 127 112 206 38 117 55 217 61 364 2 43 5 80 7 82 4 4 35 10 98 21 116 20
301 98 377 161 51 41 91 106 95 151 3 37 6 39 24 15z m-885 -365 c82 1 158 3
169 7 17 5 20 2 20 -27 0 -104 -44 -263 -90 -327 -29 -40 -73 -69 -97 -65 -7
1 -20 2 -28 3 -25 2 -76 61 -101 117 -22 49 -48 161 -57 246 -5 36 8 62 25 52
5 -3 76 -6 159 -6z"/>
</g>
</svg>
